<?xml version="1.0" standalone="no"?>
<!DOCTYPE svg PUBLIC "-//W3C//DTD SVG 20010904//EN"
 "http://www.w3.org/TR/2001/REC-SVG-20010904/DTD/svg10.dtd">
<svg version="1.0" xmlns="http://www.w3.org/2000/svg"
 width="3800.000000pt" height="3800.000000pt" viewBox="0 0 3800.000000 3800.000000"
 preserveAspectRatio="xMidYMid meet">
<metadata>
Created by potrace 1.14, written by Peter Selinger 2001-2017
</metadata>
<g transform="translate(0.000000,3800.000000) scale(0.100000,-0.100000)"
fill="#000000" stroke="none">
<path d="M8038 34649 c-141 -21 -267 -82 -370 -178 -73 -68 -106 -112 -289
-380 -58 -86 -164 -240 -235 -343 -131 -191 -184 -268 -356 -521 -53 -78 -107
-155 -118 -172 -12 -16 -177 -257 -367 -535 -190 -278 -384 -561 -431 -630
-115 -167 -192 -280 -342 -498 -283 -412 -399 -582 -461 -672 -36 -52 -105
-153 -154 -225 -80 -117 -143 -208 -178 -258 -6 -10 -70 -102 -141 -205 -70
-103 -162 -236 -204 -297 -42 -60 -119 -173 -171 -250 -52 -77 -118 -172 -146
-212 -61 -88 -257 -372 -580 -843 -134 -195 -253 -368 -265 -385 -12 -16 -92
-132 -178 -257 -87 -125 -200 -290 -252 -365 -109 -158 -206 -299 -295 -428
-57 -83 -221 -321 -245 -355 -6 -8 -104 -150 -218 -315 -114 -165 -233 -336
-263 -380 -31 -44 -84 -120 -117 -170 -34 -49 -65 -94 -70 -100 -4 -5 -50 -71
-100 -145 -51 -74 -140 -202 -197 -285 -57 -82 -124 -179 -149 -215 -25 -36
-66 -94 -91 -130 -25 -36 -56 -81 -70 -101 -13 -20 -53 -78 -89 -130 -36 -52
-71 -101 -76 -109 -6 -8 -50 -72 -98 -141 -48 -69 -94 -139 -102 -155 -8 -16
-24 -45 -36 -64 -26 -45 -54 -155 -54 -217 1 -109 79 -253 220 -403 22 -23
213 -231 225 -244 28 -31 235 -258 275 -301 87 -93 109 -117 176 -192 37 -41
86 -94 108 -118 39 -41 174 -188 206 -225 17 -20 175 -192 265 -290 34 -36 74
-80 90 -99 17 -18 41 -45 55 -60 34 -36 210 -229 235 -257 16 -17 133 -146
200 -218 6 -6 51 -56 100 -111 50 -55 115 -126 145 -159 30 -32 60 -64 65 -70
30 -34 196 -218 236 -261 63 -69 157 -172 264 -290 50 -55 115 -126 145 -159
30 -33 60 -65 65 -71 6 -6 44 -49 85 -95 41 -46 84 -92 96 -104 11 -12 60 -66
110 -121 49 -55 112 -125 140 -155 28 -30 73 -80 100 -110 27 -30 56 -62 64
-70 8 -8 55 -60 105 -115 49 -55 109 -120 132 -145 23 -25 51 -56 63 -70 12
-14 56 -63 98 -109 43 -46 88 -96 100 -110 86 -95 290 -318 348 -381 23 -25
57 -63 75 -84 19 -22 50 -56 69 -76 19 -20 69 -74 110 -120 69 -77 138 -153
199 -219 12 -14 55 -62 95 -105 39 -44 82 -91 96 -106 22 -24 52 -57 195 -215
70 -77 116 -128 196 -216 47 -51 137 -150 199 -219 62 -69 139 -152 169 -185
66 -72 202 -221 228 -251 16 -19 147 -162 213 -234 47 -51 186 -205 226 -249
21 -25 48 -54 59 -66 11 -11 58 -63 105 -115 47 -51 94 -103 105 -114 11 -12
54 -59 95 -105 41 -47 86 -96 100 -111 14 -15 59 -64 100 -110 41 -45 88 -97
104 -114 33 -36 67 -73 196 -216 52 -57 104 -114 115 -126 11 -11 38 -41 59
-65 22 -24 62 -69 90 -99 74 -80 140 -154 231 -254 44 -49 85 -94 90 -100 16
-16 253 -276 323 -354 25 -27 63 -69 157 -172 28 -31 88 -98 135 -149 47 -52
90 -99 95 -105 6 -6 56 -60 110 -121 55 -60 116 -127 135 -149 19 -21 44 -48
55 -60 11 -12 56 -62 100 -111 44 -48 94 -103 110 -120 17 -18 46 -50 65 -72
19 -21 78 -85 130 -143 52 -58 100 -110 105 -116 6 -6 51 -55 100 -109 50 -54
99 -108 110 -121 11 -12 54 -59 95 -104 41 -46 85 -94 97 -108 13 -13 58 -63
100 -110 43 -47 86 -94 95 -104 9 -11 54 -60 100 -110 46 -50 92 -101 103
-114 19 -20 168 -184 190 -208 6 -6 55 -60 110 -121 54 -60 104 -115 110 -121
18 -19 169 -186 188 -208 10 -12 57 -63 104 -114 48 -51 95 -103 105 -115 11
-12 56 -62 102 -112 45 -49 100 -110 122 -135 21 -24 53 -58 69 -76 17 -17 66
-71 110 -120 44 -49 96 -105 115 -126 19 -20 58 -62 85 -93 28 -32 66 -75 85
-95 19 -21 71 -78 115 -126 44 -49 105 -116 135 -149 31 -33 69 -75 85 -94 17
-18 44 -48 60 -65 17 -18 64 -70 105 -115 41 -46 84 -93 95 -105 11 -12 54
-59 95 -105 41 -46 89 -98 105 -115 17 -18 64 -70 105 -116 41 -46 90 -99 108
-119 19 -20 64 -70 100 -111 37 -41 78 -86 92 -100 14 -14 63 -68 110 -120 47
-52 94 -104 105 -116 11 -11 49 -53 85 -93 36 -40 79 -88 95 -105 39 -43 186
-204 205 -226 8 -9 53 -59 100 -110 47 -51 94 -103 105 -115 22 -25 153 -169
230 -254 28 -30 61 -67 75 -82 14 -15 59 -64 100 -110 41 -46 84 -93 95 -105
11 -12 56 -61 100 -110 44 -49 89 -98 100 -110 11 -11 40 -43 64 -70 25 -27
83 -91 130 -143 47 -52 97 -106 110 -120 13 -14 58 -64 100 -110 42 -46 85
-94 96 -106 131 -146 173 -192 190 -210 29 -30 108 -117 205 -224 84 -93 105
-116 178 -196 20 -22 78 -85 127 -140 90 -100 148 -163 195 -214 34 -36 181
-199 200 -221 8 -10 53 -59 100 -110 47 -51 92 -100 100 -110 8 -9 52 -57 97
-106 45 -49 91 -100 103 -114 12 -13 63 -69 113 -124 51 -54 99 -107 107 -116
8 -10 53 -59 100 -110 47 -51 93 -102 103 -114 10 -11 56 -61 101 -111 46 -49
100 -110 122 -134 21 -24 53 -58 69 -76 31 -32 175 -190 256 -279 24 -27 53
-59 64 -70 11 -12 57 -62 101 -111 45 -50 93 -102 105 -116 123 -133 205 -223
221 -242 11 -12 55 -60 98 -107 43 -47 87 -95 98 -108 11 -12 62 -68 113 -124
52 -56 104 -113 117 -127 15 -16 26 -21 30 -14 4 6 68 75 143 154 74 79 164
176 199 214 35 39 86 95 114 126 28 30 69 75 91 100 175 193 345 379 370 406
16 17 37 40 46 50 15 18 188 209 288 318 25 28 89 97 141 155 52 58 97 107
100 110 10 10 118 129 200 220 81 89 153 169 247 270 23 25 50 55 61 68 11 12
53 59 95 105 41 45 85 94 98 108 13 14 60 66 104 114 44 48 89 97 100 109 132
147 194 215 215 237 14 15 57 62 95 105 39 42 75 82 81 88 5 6 57 63 114 126
57 63 106 117 109 120 3 3 44 48 91 100 47 52 92 101 100 110 8 9 51 56 95
104 44 49 91 101 105 116 14 15 61 67 105 116 44 48 87 95 95 104 8 9 53 58
100 110 47 52 87 97 91 100 3 3 56 61 118 130 63 69 153 168 201 220 84 93
379 417 430 473 60 67 77 86 115 128 23 24 113 123 200 219 88 96 178 195 200
219 52 56 30 33 260 286 109 121 218 240 240 265 38 40 213 233 305 334 19 22
51 56 70 77 19 21 67 73 105 115 39 43 83 92 98 109 16 16 54 59 85 94 32 35
68 75 82 90 14 15 62 67 106 116 45 50 93 102 105 116 13 14 60 65 104 114 44
49 91 100 105 115 14 14 55 60 91 101 37 41 86 94 109 119 23 25 68 75 101
111 33 37 72 79 87 95 15 17 62 68 105 116 42 47 87 96 100 110 12 13 58 64
102 113 44 48 91 100 105 115 14 15 57 62 95 105 39 42 84 92 100 109 17 18
64 70 105 116 41 46 86 95 100 110 14 15 61 67 105 115 44 49 91 100 104 114
13 14 55 61 95 105 39 43 82 91 96 106 44 48 185 202 200 220 13 14 92 101
193 212 12 13 59 65 103 114 45 49 93 101 105 115 13 14 56 60 94 103 39 43
83 92 99 110 59 64 114 124 206 226 52 58 120 132 151 165 31 33 76 82 100
110 24 27 49 55 54 61 95 104 187 205 215 235 19 21 42 46 51 56 8 10 69 77
135 149 148 162 284 311 304 334 14 16 177 194 210 230 8 9 35 38 59 66 24 27
65 72 90 99 25 28 87 95 136 150 50 55 99 109 110 120 11 12 52 56 90 99 39
43 86 95 105 115 19 20 53 57 74 81 22 25 78 88 126 140 47 52 136 149 196
215 60 66 111 122 114 125 3 3 46 50 95 105 50 55 111 122 136 150 26 27 59
64 74 80 15 17 58 64 95 105 251 277 301 332 368 405 21 22 82 90 137 150 54
61 118 130 140 155 23 25 68 74 101 110 32 36 74 82 94 104 19 21 44 48 55 60
17 19 81 90 214 235 91 101 170 187 190 210 13 14 42 46 65 71 22 25 82 90
131 145 50 55 93 102 96 105 3 3 72 79 154 170 81 91 153 170 159 175 6 6 47
51 91 100 44 50 91 102 105 116 29 30 68 73 195 214 142 157 296 327 400 440
15 17 57 63 94 104 36 41 77 86 91 101 14 15 43 46 65 71 53 59 185 205 325
358 62 69 120 133 129 143 9 11 32 36 51 57 49 52 201 220 223 245 16 18 106
116 188 207 13 14 56 61 95 105 40 43 83 91 95 105 24 25 166 182 204 224 22
24 173 191 246 270 25 27 65 72 90 99 24 27 64 70 89 97 25 27 75 81 110 121
36 40 92 100 124 135 32 35 66 72 75 82 33 38 166 185 182 200 9 9 65 70 124
136 60 66 111 122 114 125 3 3 51 55 106 115 55 61 123 135 151 165 28 30 62
67 75 81 32 35 90 99 164 179 54 59 159 173 306 333 220 241 257 383 152 592
-25 48 -142 228 -227 347 -23 31 -101 144 -174 250 -74 106 -205 297 -293 423
-87 127 -164 238 -171 249 -7 10 -20 28 -29 40 -9 11 -45 64 -80 116 -35 52
-66 97 -69 100 -3 3 -22 30 -42 60 -20 30 -73 107 -117 170 -44 63 -106 153
-138 200 -32 47 -141 205 -243 352 -359 518 -555 803 -585 848 -16 25 -32 47
-35 50 -14 13 -70 100 -70 108 0 6 -3 12 -8 14 -9 4 -103 139 -633 910 -418
607 -545 793 -981 1428 -251 366 -460 670 -465 676 -4 5 -12 17 -18 26 -14 22
-112 166 -241 353 -110 160 -206 300 -381 555 -50 74 -97 140 -102 147 -6 7
-11 16 -11 22 0 5 -3 11 -8 13 -4 2 -21 23 -37 48 -17 25 -69 101 -115 170
-47 69 -87 127 -90 130 -3 3 -46 66 -96 140 -81 119 -269 394 -424 620 -28 41
-119 174 -202 295 -83 121 -192 280 -242 353 -50 74 -95 141 -101 150 -5 10
-12 19 -15 22 -3 3 -34 48 -70 100 -35 52 -91 136 -125 185 -34 50 -97 142
-140 205 -150 220 -168 245 -219 308 -103 128 -236 213 -392 252 -80 19 -158
20 -11005 23 -6008 2 -10945 0 -10971 -4z m11472 -2004 c2279 -6 2518 -8 2580
-24 184 -49 373 -176 419 -284 10 -23 30 -67 44 -97 13 -30 40 -91 60 -135 19
-44 46 -105 60 -135 14 -30 59 -131 100 -225 41 -93 86 -195 100 -225 13 -30
40 -91 60 -135 19 -44 44 -101 56 -127 41 -93 60 -136 166 -378 59 -135 115
-263 125 -285 41 -92 104 -235 137 -310 19 -44 43 -99 54 -123 11 -24 76 -172
145 -330 69 -158 132 -303 141 -322 8 -19 21 -48 28 -65 23 -52 126 -289 135
-310 5 -11 19 -42 31 -70 12 -27 32 -73 45 -102 13 -28 24 -54 24 -57 0 -2 13
-33 29 -68 16 -35 52 -117 81 -183 29 -66 60 -138 70 -160 10 -22 32 -74 50
-115 18 -41 43 -99 56 -128 13 -29 24 -55 24 -57 0 -2 13 -34 30 -69 16 -36
41 -94 56 -128 14 -35 34 -81 44 -103 10 -22 64 -146 120 -275 134 -309 377
-868 502 -1154 55 -126 104 -239 108 -252 5 -13 18 -43 29 -67 11 -23 88 -199
171 -392 84 -192 161 -370 172 -395 18 -41 32 -80 43 -120 18 -64 45 -165 45
-167 0 -2 -3013 -3 -6695 -3 -3682 0 -6695 3 -6695 7 0 7 71 202 90 248 4 11
18 47 31 80 22 58 195 463 237 555 11 25 41 92 65 150 52 122 263 606 277 635
19 40 230 527 230 531 0 2 13 32 29 66 60 130 91 200 91 205 0 5 24 61 96 221
13 29 24 55 24 57 0 2 13 33 29 67 16 35 90 205 165 378 75 173 145 333 156
355 10 23 39 90 65 150 26 61 53 124 60 140 28 60 235 537 235 540 0 2 15 36
34 77 18 40 66 150 106 243 40 94 81 190 92 215 11 25 28 63 38 85 10 22 104
240 210 485 106 245 201 464 211 487 11 23 19 44 19 47 0 3 13 33 29 68 16 35
44 97 61 138 18 41 40 93 50 115 10 22 37 85 60 140 40 94 64 150 95 220 7 17
59 138 115 270 142 332 173 387 262 471 82 78 169 117 288 130 30 4 56 8 58 9
2 1 380 1 840 -1 460 -2 1721 -6 2802 -9z m-6200 -4 c0 -38 -160 -454 -260
-676 -10 -22 -69 -157 -130 -300 -62 -143 -121 -279 -131 -302 -10 -24 -28
-62 -38 -85 -10 -24 -94 -216 -186 -428 -92 -212 -175 -403 -185 -425 -10 -22
-46 -105 -80 -185 -34 -80 -66 -149 -71 -154 -5 -6 -9 -16 -9 -23 0 -7 -13
-41 -29 -75 -16 -35 -104 -236 -196 -448 -174 -400 -200 -462 -215 -495 -37
-83 -67 -153 -135 -310 -43 -99 -88 -202 -100 -230 -13 -27 -44 -99 -70 -160
-26 -60 -58 -134 -71 -163 -13 -29 -24 -55 -24 -57 0 -4 -22 -54 -81 -183 -16
-35 -29 -66 -29 -68 0 -3 -9 -24 -19 -47 -24 -52 -148 -336 -206 -472 -40 -93
-84 -192 -105 -240 -5 -11 -39 -90 -76 -175 -36 -85 -76 -177 -89 -205 -12
-27 -48 -111 -80 -185 -32 -74 -66 -153 -76 -175 -10 -22 -86 -197 -169 -390
-84 -192 -160 -368 -170 -390 -10 -22 -30 -69 -45 -105 -99 -237 -175 -347
-279 -399 -94 -47 -129 -49 -786 -44 -338 2 -1684 5 -2990 7 -1820 3 -2382 6
-2405 15 -16 7 -32 12 -35 12 -11 -2 -76 12 -88 19 -13 7 22 63 221 349 34 50
136 199 227 331 91 132 235 341 320 465 85 123 189 274 230 336 41 61 86 125
98 142 20 28 218 315 490 712 42 61 130 189 196 285 67 96 126 182 131 191 10
16 65 97 185 269 30 43 105 151 165 239 61 89 203 296 318 462 114 165 207
303 207 307 0 3 8 15 19 26 10 12 63 86 117 166 54 80 114 168 134 196 19 28
67 98 106 155 39 57 101 147 137 199 36 52 104 151 150 220 119 175 605 882
620 900 7 9 44 62 82 119 86 126 78 114 201 291 55 80 122 175 147 213 108
155 141 203 300 429 91 130 176 249 189 265 52 62 156 160 208 194 108 70 111
71 460 76 173 2 316 5 317 7 1 1 830 3 1843 5 1286 2 1840 0 1840 -8z m15510
-4 c222 -5 266 -18 380 -107 71 -56 64 -47 391 -520 36 -52 202 -293 369 -535
320 -464 399 -579 471 -685 24 -36 46 -67 49 -70 3 -3 32 -43 63 -90 137 -200
193 -282 278 -405 49 -71 132 -193 185 -270 52 -77 119 -174 148 -215 29 -41
86 -124 128 -185 41 -60 104 -153 140 -205 220 -319 683 -994 738 -1075 36
-53 80 -117 98 -143 33 -46 417 -605 568 -827 41 -60 108 -157 147 -215 40
-58 111 -161 157 -230 47 -69 88 -126 93 -128 4 -2 7 -10 7 -17 0 -7 4 -15 8
-17 4 -1 59 -79 122 -171 276 -403 552 -807 678 -989 243 -352 250 -364 253
-406 2 -23 1 -43 -2 -46 -3 -3 -41 -8 -85 -12 -43 -3 -106 -10 -139 -14 -33
-5 -1165 -9 -2515 -10 -1350 -1 -2664 -2 -2920 -2 -256 0 -482 2 -502 6 -130
21 -198 51 -263 114 -60 58 -97 124 -185 328 -44 104 -87 203 -94 219 -8 17
-73 170 -146 340 -73 171 -143 333 -155 360 -13 28 -70 160 -128 295 -117 274
-125 291 -161 373 -14 32 -26 60 -26 62 0 2 -11 28 -24 57 -13 29 -52 118 -86
198 -34 80 -70 163 -80 185 -10 22 -93 213 -185 425 -91 212 -172 399 -180
416 -8 16 -59 133 -113 260 -55 126 -154 353 -220 504 -66 151 -157 361 -202
465 -45 105 -91 210 -102 234 -11 24 -57 130 -103 235 -111 256 -374 861 -418
961 -19 44 -74 170 -122 280 -47 110 -92 214 -100 230 -53 118 -331 760 -346
802 -21 55 -69 221 -69 239 0 8 554 10 2008 8 1104 -1 2090 -5 2192 -7z
m-18880 -9587 c75 -14 170 -60 224 -111 47 -42 119 -145 149 -209 20 -46 260
-621 477 -1145 34 -82 68 -163 75 -180 11 -27 41 -97 81 -192 8 -18 21 -48 29
-65 7 -18 23 -55 33 -83 16 -43 151 -363 279 -665 20 -47 55 -130 78 -185 137
-328 229 -546 247 -585 11 -25 24 -54 28 -65 42 -98 65 -154 101 -240 22 -55
49 -118 59 -140 10 -22 57 -132 105 -245 47 -113 92 -218 100 -235 7 -16 45
-106 85 -200 70 -164 92 -218 111 -260 5 -11 146 -342 315 -735 168 -393 314
-733 324 -755 10 -22 60 -137 110 -255 51 -118 95 -219 98 -225 4 -5 7 -14 9
-20 1 -9 194 -457 228 -530 12 -26 159 -366 202 -465 8 -19 21 -48 28 -65 8
-16 67 -151 131 -300 118 -276 172 -399 204 -470 10 -22 30 -69 45 -105 15
-36 35 -83 45 -105 10 -22 54 -123 98 -225 44 -102 103 -239 132 -305 29 -66
58 -133 65 -150 7 -16 41 -93 74 -170 34 -77 66 -149 70 -160 5 -11 16 -36 24
-55 9 -19 39 -89 67 -155 29 -66 61 -140 72 -164 11 -25 64 -146 118 -270 261
-603 303 -700 325 -746 12 -27 41 -95 65 -150 23 -55 50 -118 60 -140 10 -22
32 -71 48 -110 41 -95 195 -452 220 -506 11 -24 32 -73 47 -109 15 -36 36 -83
46 -105 47 -103 62 -169 65 -280 l3 -110 -42 45 c-49 52 -212 232 -236 259 -9
10 -54 60 -101 111 -47 51 -89 98 -95 104 -5 6 -51 56 -101 111 -49 55 -106
117 -125 139 -18 21 -45 51 -59 65 -14 14 -59 64 -100 111 -41 46 -84 93 -96
105 -11 11 -85 92 -164 180 -143 159 -173 192 -247 271 -21 23 -65 72 -98 109
-33 37 -73 82 -90 99 -49 52 -182 199 -205 226 -12 14 -57 63 -99 110 -43 47
-98 107 -122 134 -24 27 -55 61 -69 76 -20 22 -164 179 -205 224 -5 6 -48 54
-95 106 -47 52 -94 104 -105 116 -31 32 -91 99 -185 204 -47 52 -92 102 -100
110 -8 8 -53 58 -100 110 -47 52 -94 104 -105 115 -11 12 -51 55 -88 97 -37
42 -80 89 -95 105 -15 16 -63 69 -107 117 -44 49 -91 101 -105 116 -14 15 -61
67 -105 116 -154 170 -287 316 -310 340 -5 6 -44 48 -85 94 -83 92 -82 91
-195 215 -44 48 -87 96 -95 105 -8 10 -50 55 -92 101 -42 46 -85 93 -95 105
-16 19 -149 166 -213 235 -14 15 -56 62 -95 105 -38 42 -87 96 -108 118 -54
59 -91 100 -187 206 -162 180 -204 225 -219 241 -9 9 -47 51 -86 94 -38 44
-93 104 -121 134 -28 31 -124 137 -214 236 -230 254 -322 355 -347 383 -13 13
-58 63 -100 110 -43 47 -88 97 -100 110 -64 70 -180 197 -193 212 -13 14 -92
101 -193 212 -20 22 -106 117 -247 273 -30 33 -59 65 -65 71 -5 6 -44 48 -85
94 -41 46 -91 100 -110 121 -37 40 -149 164 -178 196 -23 26 -182 201 -207
228 -11 12 -58 64 -105 116 -47 52 -87 96 -90 99 -3 3 -27 30 -55 60 -69 77
-225 248 -254 279 -13 14 -51 57 -85 95 -84 94 -101 112 -165 182 -31 33 -92
100 -136 149 -44 49 -129 143 -190 210 -196 215 -280 307 -295 325 -8 9 -53
59 -100 110 -47 51 -93 102 -103 114 -10 12 -37 41 -60 66 -23 25 -83 90 -132
144 -50 55 -97 107 -105 116 -8 9 -51 56 -95 104 -44 49 -91 101 -105 116 -14
15 -59 64 -100 110 -41 46 -86 95 -100 110 -32 34 -154 170 -181 201 -11 13
-41 47 -67 74 -85 93 -147 160 -232 254 -47 52 -96 106 -110 121 -14 15 -56
62 -95 105 -38 43 -81 89 -93 102 -13 13 -42 45 -64 71 -37 42 -190 211 -243
267 -11 12 -58 64 -105 116 -47 52 -89 99 -95 105 -5 6 -44 48 -85 94 -74 82
-91 100 -174 190 -22 25 -102 113 -176 195 -74 83 -137 152 -140 155 -3 3 -18
20 -34 37 l-29 32 2804 -3 c1542 -1 2842 0 2889 3 106 7 219 4 290 -9z m21405
6 c1469 -2 2669 -6 2668 -10 0 -4 -18 -26 -38 -49 -47 -52 -305 -336 -325
-357 -8 -9 -51 -56 -95 -105 -44 -49 -89 -99 -100 -111 -11 -12 -54 -59 -95
-104 -41 -46 -88 -98 -105 -115 -38 -41 -174 -191 -198 -219 -35 -40 -298
-328 -307 -336 -3 -3 -25 -27 -49 -55 -25 -27 -86 -95 -135 -149 -50 -54 -95
-104 -101 -110 -50 -57 -199 -221 -236 -261 -25 -27 -66 -72 -90 -99 -24 -28
-51 -57 -59 -66 -8 -9 -53 -58 -100 -110 -47 -51 -98 -108 -115 -125 -16 -18
-55 -61 -86 -96 -31 -35 -72 -80 -90 -100 -29 -30 -78 -83 -212 -231 -12 -14
-58 -64 -102 -113 -44 -48 -87 -96 -95 -105 -13 -15 -109 -121 -200 -220 -14
-15 -61 -67 -105 -116 -44 -49 -92 -101 -107 -117 -15 -16 -58 -63 -95 -105
-37 -42 -91 -101 -120 -132 -28 -30 -68 -75 -90 -99 -21 -24 -56 -63 -78 -87
-22 -23 -74 -79 -115 -125 -60 -67 -235 -261 -285 -315 -9 -10 -159 -173 -212
-231 -12 -13 -50 -56 -85 -95 -35 -39 -68 -76 -73 -82 -6 -6 -60 -65 -119
-131 -60 -66 -114 -125 -120 -130 -6 -6 -47 -50 -91 -100 -44 -49 -87 -96 -95
-105 -8 -9 -53 -58 -100 -110 -47 -52 -112 -124 -145 -160 -163 -179 -242
-265 -258 -284 -10 -11 -53 -59 -95 -105 -42 -46 -84 -92 -92 -101 -8 -10 -53
-59 -100 -111 -47 -51 -94 -102 -105 -115 -11 -12 -56 -61 -100 -109 -44 -48
-88 -97 -98 -109 -10 -12 -55 -61 -100 -110 -45 -49 -93 -101 -105 -115 -13
-14 -56 -62 -95 -105 -71 -78 -102 -112 -156 -171 -15 -16 -144 -158 -286
-315 -142 -157 -295 -325 -339 -374 -45 -48 -92 -100 -105 -115 -13 -14 -42
-46 -65 -71 -22 -25 -82 -90 -131 -145 -50 -55 -101 -111 -115 -126 -14 -14
-49 -53 -78 -87 -29 -33 -68 -75 -85 -94 -18 -18 -69 -74 -113 -123 -45 -50
-94 -103 -109 -120 -35 -38 -77 -85 -190 -210 -49 -55 -99 -109 -110 -121 -28
-29 -176 -192 -198 -218 -10 -12 -40 -44 -65 -71 -26 -28 -82 -89 -125 -137
-42 -47 -87 -96 -100 -110 -12 -13 -58 -64 -102 -113 -44 -48 -93 -103 -110
-120 -16 -18 -46 -50 -65 -71 -60 -67 -253 -280 -356 -393 -28 -31 -98 -108
-155 -171 -58 -63 -121 -132 -140 -154 -18 -21 -45 -51 -59 -65 -14 -14 -45
-49 -69 -76 -24 -28 -67 -75 -95 -105 -28 -30 -96 -104 -150 -165 -54 -60
-104 -115 -110 -120 -6 -6 -47 -51 -91 -100 -44 -50 -103 -115 -131 -145 -28
-30 -71 -77 -95 -104 -24 -28 -51 -57 -59 -66 -41 -44 -105 -115 -195 -215
-55 -60 -104 -115 -110 -121 -5 -6 -48 -53 -95 -104 -47 -52 -96 -105 -109
-119 -12 -14 -53 -59 -90 -100 -74 -82 -72 -80 -191 -210 -47 -51 -94 -103
-105 -115 -23 -26 -171 -188 -200 -220 -11 -12 -58 -65 -105 -116 -47 -52 -98
-108 -114 -125 -15 -16 -33 -37 -40 -45 -29 -38 -42 -42 -79 -20 l-35 21 27
67 c95 227 264 632 276 657 7 17 25 59 40 95 15 36 33 79 40 95 7 17 18 44 25
60 74 179 505 1190 575 1350 7 17 41 95 75 175 35 80 73 168 85 195 12 28 39
91 60 140 21 50 46 108 55 130 10 22 61 141 114 265 54 124 103 239 110 255 8
17 26 59 41 95 15 36 34 79 41 96 7 17 173 404 369 860 196 456 360 838 365
849 5 11 53 121 106 245 53 124 107 249 120 278 13 29 24 55 24 57 0 2 11 28
24 57 13 29 288 670 611 1423 322 754 592 1384 600 1400 7 17 39 91 70 165 31
74 65 153 75 175 10 22 43 101 74 175 32 74 66 153 76 175 9 22 48 112 85 199
37 88 75 178 85 200 10 23 78 181 150 351 73 171 138 324 145 340 8 17 39 91
70 165 31 74 62 149 70 165 13 30 166 390 437 1030 194 459 219 508 311 618
100 120 261 198 442 214 39 3 71 6 72 7 1 1 105 0 230 -2 125 -2 1430 -5 2898
-6z m-5799 -39 c2 -2 -129 -314 -292 -693 -162 -379 -296 -693 -297 -699 -2
-5 -5 -14 -9 -20 -3 -5 -58 -134 -123 -285 -64 -151 -123 -290 -131 -307 -8
-18 -20 -48 -28 -65 -8 -18 -60 -141 -116 -273 -56 -132 -111 -258 -120 -280
-10 -22 -192 -447 -405 -945 -212 -498 -392 -918 -400 -935 -7 -16 -80 -185
-160 -375 -140 -329 -158 -369 -205 -476 -12 -25 -34 -79 -50 -120 -16 -40
-34 -82 -39 -91 -11 -22 -19 -39 -111 -258 -40 -93 -80 -188 -90 -210 -10 -22
-35 -80 -55 -130 -21 -49 -48 -112 -60 -140 -13 -27 -48 -109 -78 -180 -30
-72 -64 -153 -76 -180 -12 -28 -27 -61 -33 -75 -6 -14 -17 -37 -25 -52 -7 -15
-14 -30 -14 -33 0 -6 -24 -64 -50 -122 -10 -23 -19 -44 -19 -47 0 -3 -13 -35
-30 -71 -16 -36 -30 -68 -30 -70 0 -2 -11 -28 -24 -57 -14 -29 -72 -165 -131
-302 -58 -137 -115 -269 -126 -292 -10 -24 -19 -45 -19 -49 0 -3 -10 -27 -21
-53 -32 -71 -37 -84 -173 -402 -70 -162 -131 -304 -136 -315 -5 -11 -98 -227
-206 -480 -107 -253 -202 -473 -209 -490 -7 -16 -28 -64 -45 -105 -17 -41 -37
-88 -45 -105 -7 -16 -25 -59 -40 -95 -15 -36 -35 -83 -45 -105 -10 -22 -57
-132 -104 -245 -48 -113 -98 -229 -112 -258 -13 -29 -24 -55 -24 -58 0 -3 -9
-24 -19 -47 -11 -24 -40 -92 -66 -152 -25 -61 -54 -128 -65 -150 -10 -22 -41
-96 -70 -165 -29 -69 -60 -143 -70 -165 -10 -22 -33 -74 -50 -115 -17 -41 -35
-84 -40 -95 -5 -11 -20 -46 -34 -78 -14 -32 -26 -60 -26 -62 0 -2 -11 -28 -24
-57 -14 -29 -64 -145 -112 -258 -47 -113 -95 -223 -105 -245 -10 -22 -77 -179
-150 -350 -151 -355 -574 -1345 -594 -1390 -8 -16 -59 -138 -116 -270 -56
-132 -110 -258 -119 -280 -10 -22 -57 -132 -105 -245 -48 -113 -95 -223 -105
-245 -10 -22 -59 -138 -110 -258 -51 -120 -96 -215 -100 -210 -4 4 -19 35 -33
68 -133 307 -524 1222 -542 1265 -18 44 -251 591 -310 725 -7 17 -19 46 -28
65 -8 19 -22 51 -30 70 -8 19 -57 132 -107 250 -51 118 -103 239 -116 268 -13
29 -24 55 -24 57 0 2 -12 30 -26 62 -43 96 -50 113 -109 253 -31 74 -63 149
-70 165 -8 17 -62 143 -120 280 -59 138 -113 265 -121 283 -8 17 -20 47 -28
65 -8 17 -33 77 -56 132 -24 55 -50 118 -60 140 -10 22 -37 85 -60 140 -23 55
-50 118 -60 140 -10 22 -59 137 -110 255 -89 209 -105 245 -134 313 -8 17 -62
145 -120 282 -59 138 -111 259 -116 270 -5 11 -53 121 -106 245 -53 124 -102
239 -109 255 -8 17 -26 59 -41 95 -14 36 -34 83 -45 105 -10 22 -66 153 -124
290 -113 264 -123 288 -161 375 -13 30 -58 136 -100 235 -42 99 -85 198 -95
220 -10 22 -64 148 -120 280 -56 132 -110 258 -119 280 -10 22 -91 211 -180
420 -89 209 -170 398 -180 420 -10 22 -70 164 -135 315 -64 151 -125 293 -135
315 -9 22 -63 148 -119 280 -57 132 -111 258 -121 280 -9 22 -36 85 -59 140
-24 55 -51 118 -60 140 -10 22 -37 85 -60 140 -24 55 -51 118 -61 140 -10 22
-30 69 -45 105 -15 36 -33 79 -40 95 -8 17 -62 143 -120 280 -111 259 -128
299 -150 350 -8 17 -48 111 -90 210 -42 99 -82 194 -90 210 -7 17 -48 111 -90
210 -42 99 -82 194 -90 210 -7 17 -82 190 -165 385 -83 195 -158 370 -166 388
-27 63 -43 99 -119 277 -42 99 -82 194 -89 210 -8 17 -62 143 -121 280 -58
138 -117 274 -131 303 -13 29 -24 55 -24 58 0 3 -9 26 -21 52 -12 26 -28 63
-36 82 -8 19 -22 51 -30 70 -8 19 -49 114 -90 210 -41 96 -80 189 -87 205 -8
17 -67 154 -131 305 -65 151 -126 293 -136 314 -11 22 -19 43 -19 47 0 5 24 9
53 11 80 5 13118 0 13123 -5z"/>
</g>
</svg>
